<svg width="155" height="51" viewBox="0 0 155 51" fill="none" xmlns="http://www.w3.org/2000/svg">
<path d="M41.4376 17.5655C41.5082 18.4439 41.9077 19.2634 42.5562 19.86C43.2048 20.4566 44.0546 20.7864 44.9358 20.7836C45.0482 20.7906 45.161 20.7906 45.2734 20.7836C46.1635 20.6857 46.9827 20.2522 47.5643 19.5714C48.146 18.8907 48.4464 18.0138 48.4042 17.1194C48.3621 16.225 47.9807 15.3803 47.3377 14.7572C46.6946 14.1341 45.8383 13.7795 44.943 13.7656H44.6054C43.6769 13.8547 42.8217 14.3088 42.2277 15.028C41.6338 15.7472 41.3496 16.6728 41.4376 17.6015V17.5655Z" fill="#FFC078"/>
<path d="M0.698073 41.6585C1.02101 41.8186 1.39364 41.8467 1.73693 41.7368C2.08022 41.6268 2.36719 41.3874 2.53697 41.0695C2.60162 40.9402 9.27482 28.1397 22.6859 26.624C23.5913 26.5136 24.5046 26.4824 25.4155 26.5307H25.6597C26.0583 26.5642 26.4543 26.6242 26.8449 26.7102L27.0676 26.7605C27.3794 26.8354 27.6865 26.9289 27.9871 27.0407H28.0948L28.8778 27.3567H28.8275C29.6852 27.7933 30.3617 28.5182 30.7382 29.4039C30.9657 30.0484 31.062 30.7318 31.0213 31.4141C30.9806 32.0963 30.8037 32.7634 30.5012 33.3762C28.7844 38.0238 23.1743 42.3337 15.4883 44.934C15.172 45.0419 14.9063 45.2621 14.7416 45.5529C14.5768 45.8436 14.5245 46.1847 14.5944 46.5114C14.6644 46.8382 14.8518 47.1279 15.1211 47.3257C15.3905 47.5235 15.723 47.6157 16.0558 47.5846C16.1636 47.5777 16.2699 47.5559 16.3718 47.52C29.3016 43.0951 34.7752 35.1074 33.5109 29.5045C33.4304 29.1407 33.3174 28.7849 33.1733 28.4414L33.0225 28.111L33.317 27.9026C35.1128 26.6887 36.6213 25.5394 37.5695 24.7851L37.864 24.5481L38.1441 24.8067C40.3781 26.897 43.9769 27.7303 48.725 27.2777C52.1552 26.8857 55.5293 26.1024 58.7815 24.9432L59.0257 24.857L59.2196 25.0365C59.8064 25.5607 60.5522 25.8726 61.3374 25.9224C62.1226 25.9721 62.9018 25.7568 63.5501 25.311C64.1983 24.8651 64.6781 24.2145 64.9126 23.4635C65.147 22.7124 65.1225 21.9044 64.843 21.1689C64.5635 20.4335 64.0452 19.8132 63.3711 19.4074C62.697 19.0016 61.9062 18.8339 61.1254 18.9312C60.3447 19.0284 59.6192 19.3849 59.0652 19.9436C58.5113 20.5024 58.1609 21.2309 58.0703 22.0124V22.2926L57.8045 22.386C55.312 23.212 50.5064 24.6056 46.2611 24.6056C42.5977 24.6056 40.1626 23.564 39.0276 21.5096C34.847 13.9313 42.4397 2.56031 42.7629 2.11495C42.9671 1.81471 43.044 1.44577 42.9767 1.08896C42.9093 0.732153 42.7033 0.416583 42.4037 0.211399C42.0995 0.0251183 41.7368 -0.0412907 41.3863 0.025097C41.0357 0.0914847 40.7225 0.285919 40.5074 0.570559C40.1626 1.07338 32.1461 12.9688 36.1975 22.0052L36.3411 22.3141L36.0682 22.5296C35.0697 23.327 33.4894 24.5337 31.6289 25.7836L31.3632 25.9704L31.1118 25.7692C29.0717 24.153 26.0835 23.5209 22.4129 23.9447C7.60113 25.6256 0.432295 39.2737 0.144967 39.8555C-0.0125772 40.1695 -0.0430025 40.5321 0.0600184 40.8679C0.163039 41.2037 0.391573 41.4869 0.698073 41.6585Z" fill="#FFC078"/>
<path d="M87.5476 15.4754C87.1614 16.5421 86.703 17.5813 86.1756 18.5857C84.735 21.4564 83.133 24.2431 81.3772 26.9326C79.6572 29.6093 77.7916 32.1896 75.7887 34.6617C75.0344 35.5956 74.2874 36.4863 73.5331 37.3483C76.0386 36.535 78.6652 36.1583 81.2982 36.2349C82.5553 36.3426 84.1715 36.7018 84.8467 37.8798C84.9937 38.1167 85.0685 38.3913 85.0622 38.67C85.0263 38.8136 84.9185 38.67 84.8826 38.5622C84.6632 38.2506 84.3812 37.9881 84.0547 37.7914C83.7282 37.5948 83.3643 37.4683 82.9862 37.4201C81.5334 37.157 80.0498 37.1086 78.5829 37.2764C77.0166 37.3634 75.46 37.5772 73.9282 37.9157C73.5408 37.9785 73.1572 38.0625 72.7789 38.1671C71.7951 39.2997 70.6056 40.2356 69.2735 40.9255C68.7707 41.1769 67.8369 41.5648 67.3412 41.3206C66.6588 40.9614 67.5208 40.0635 67.88 39.7403C69.2516 38.7457 70.8106 38.0395 72.4629 37.6643C73.274 36.7453 74.0388 35.7863 74.7543 34.791C76.6147 32.1764 78.3459 29.4539 80.0124 26.7028C81.8441 23.614 83.7333 20.3097 85.3495 17.1491C85.6763 16.5428 86.0587 15.968 86.4916 15.4323C86.5994 15.2527 87.3895 14.2112 87.605 14.714C87.6616 14.9679 87.6416 15.2329 87.5476 15.4754ZM71.7445 38.4617C70.5306 38.8208 68.4905 39.3955 67.7004 40.6166C67.5567 40.868 67.5567 40.9399 67.8441 40.9399C68.1934 40.8923 68.5315 40.7828 68.8425 40.6166C69.9507 40.1073 70.9395 39.3707 71.7445 38.4545V38.4617Z" fill="white"/>
<path d="M67.7241 41.7763C67.5325 41.7818 67.3425 41.7398 67.171 41.6542C67.0513 41.5983 66.9477 41.5129 66.8698 41.4062C66.7919 41.2994 66.7423 41.1747 66.7257 41.0436C66.6466 40.4546 67.2644 39.8009 67.6307 39.4705C68.9962 38.444 70.5588 37.7103 72.2208 37.3155C73.001 36.4225 73.7347 35.4898 74.4189 34.5213C76.4086 31.7629 78.2116 28.9112 79.6482 26.4904C81.6595 23.2077 83.5056 19.9106 85.0069 16.9511C85.3454 16.3216 85.7423 15.7252 86.1921 15.1697C86.1921 15.1697 86.8314 14.1641 87.4348 14.1641C87.5371 14.1684 87.636 14.2018 87.7199 14.2603C87.8039 14.3189 87.8694 14.4001 87.9089 14.4945C88.0175 14.833 88.0048 15.1987 87.873 15.5289C87.8709 15.5504 87.8709 15.572 87.873 15.5935C87.4866 16.6776 87.0258 17.7336 86.4938 18.7541C85.0565 21.6396 83.4519 24.4386 81.6883 27.1369C79.9586 29.8269 78.0784 32.4169 76.0566 34.8948C75.5825 35.4982 75.0869 36.0872 74.62 36.669C76.8007 36.0403 79.0688 35.7686 81.3363 35.8645C83.2901 36.0369 84.5759 36.6547 85.1793 37.7034C85.3701 38.016 85.4603 38.3795 85.4379 38.745C85.4163 38.8311 85.3713 38.9095 85.3079 38.9716C85.2446 39.0337 85.1652 39.0771 85.0787 39.097C84.966 39.0978 84.8557 39.0638 84.7631 38.9995C84.6705 38.9352 84.6001 38.8438 84.5615 38.7378C84.3659 38.4743 84.1184 38.2536 83.8342 38.0893C83.5501 37.925 83.2354 37.8206 82.9094 37.7824C81.4866 37.5317 80.0353 37.4857 78.5995 37.646C77.0526 37.7372 75.5153 37.9509 74.0022 38.2853C73.6 38.3571 73.2839 38.4217 72.975 38.5008C71.9793 39.6385 70.7748 40.5748 69.4265 41.2591C68.9012 41.548 68.3214 41.7242 67.7241 41.7763ZM70.3101 39.3125C69.575 39.5549 68.8977 39.9462 68.3203 40.4618C68.4433 40.4168 68.5633 40.3641 68.6795 40.3037C69.251 40.0217 69.7966 39.69 70.3101 39.3125ZM72.0125 38.1919V38.235C72.0425 38.276 72.0644 38.3223 72.0771 38.3715C72.1705 38.2781 72.2567 38.1775 72.3573 38.0841L72.0125 38.1919ZM73.1834 37.3874L72.8529 37.7681L73.3414 37.6531C73.2989 37.6274 73.2622 37.5932 73.2336 37.5526C73.2039 37.5023 73.1867 37.4457 73.1834 37.3874ZM80.3666 36.5828C78.6678 36.6204 76.9796 36.8615 75.3383 37.3012C76.4233 37.1241 77.5166 37.0019 78.6139 36.9348C80.117 36.7678 81.6363 36.8186 83.1249 37.0857L83.6134 37.215C82.8975 36.874 82.1211 36.6786 81.3291 36.6403C80.9556 36.59 80.6323 36.5828 80.3163 36.5828H80.3666ZM87.2552 15.0691C87.0888 15.2285 86.9417 15.4069 86.8171 15.6007C86.3866 16.129 86.0066 16.6966 85.6821 17.2959C84.1808 20.2626 82.3132 23.5812 80.3019 26.8783C78.815 29.3063 77.0264 32.1795 75.0223 34.9882L74.857 35.2252L75.5035 34.4279C77.5046 31.9685 79.3679 29.4002 81.0849 26.7347C82.8334 24.0571 84.4282 21.2823 85.8617 18.4237C86.377 17.4357 86.8235 16.4132 87.1978 15.3637V15.3206C87.2219 15.238 87.2411 15.154 87.2552 15.0691Z" fill="white"/>
<path d="M95.6691 31.83C95.5249 32.042 95.3691 32.2458 95.2022 32.4405C94.2937 33.5406 93.2888 34.5575 92.1996 35.479C91.0932 36.5046 89.8076 37.3179 88.4069 37.8782C88.096 38.0076 87.7565 38.0531 87.4225 38.0102C87.0885 37.9674 86.7716 37.8376 86.5033 37.634C86.2928 37.4351 86.1245 37.1959 86.0085 36.9306C85.8925 36.6652 85.8311 36.3792 85.8281 36.0896C85.9377 34.8126 86.4395 33.6008 87.2648 32.6201C88.2078 31.3874 89.406 30.373 90.7774 29.6463C91.4526 29.2871 92.7096 28.7555 93.3489 29.5026C93.9882 30.2497 93.4567 31.2625 92.8533 31.8659C92.5215 32.1807 92.1466 32.4467 91.7399 32.656C90.5293 33.3771 89.194 33.8644 87.8035 34.0927C87.4443 34.8469 86.9056 35.9531 87.2648 36.7433C88.019 37.7417 90.3751 36.2764 91.0934 35.7376C92.3391 34.8425 93.4918 33.8246 94.5342 32.6991C94.8918 32.2371 95.2989 31.8156 95.7481 31.4421C95.9564 31.3271 95.705 31.7581 95.6691 31.83ZM87.94 33.8341C89.2883 33.5429 90.5307 32.8869 91.5316 31.9377C91.8548 31.6145 93.1047 30.2568 92.7886 29.6822C92.3577 28.9639 90.8923 30.0413 90.4541 30.4005C89.3916 31.3624 88.5361 32.5307 87.94 33.8341Z" fill="white"/>
<path d="M87.6009 38.3933C87.1098 38.3998 86.6329 38.2289 86.2576 37.912C86.0077 37.6838 85.8073 37.4066 85.6689 37.0977C85.5305 36.7888 85.4571 36.4547 85.4531 36.1162C85.5522 34.746 86.0799 33.4417 86.9616 32.3881C87.9251 31.1182 89.1498 30.0698 90.5532 29.3137C92.3131 28.3871 93.1751 28.775 93.5917 29.2563C94.2669 30.0392 94.0658 31.1383 93.0673 32.1296C92.7215 32.4546 92.3323 32.7301 91.9108 32.9484C90.7189 33.665 89.4111 34.1682 88.0463 34.4354C87.723 35.1537 87.3279 36.0157 87.5937 36.5903C88.0032 37.1075 89.7487 36.2743 90.8621 35.4482C92.0924 34.5638 93.2307 33.5579 94.2597 32.4456L94.5183 32.1367C94.8137 31.7658 95.1539 31.4328 95.5312 31.1455C95.6111 31.0926 95.7047 31.0645 95.8005 31.0645C95.8963 31.0645 95.99 31.0926 96.0699 31.1455C96.3213 31.3753 96.1561 31.6914 96.0196 31.9428V32.0146C95.8663 32.2367 95.7008 32.4501 95.524 32.6539C94.6025 33.772 93.5833 34.8057 92.4783 35.7427L92.4065 35.8002C91.2803 36.8319 89.9756 37.6498 88.5563 38.2137C88.2494 38.3242 87.9269 38.3849 87.6009 38.3933ZM89.2602 31.088C88.6247 31.6044 88.051 32.1925 87.5506 32.8407C86.7706 33.7605 86.2962 34.9003 86.193 36.1019C86.1943 36.3353 86.2435 36.566 86.3373 36.7797C86.4312 36.9934 86.5679 37.1857 86.7389 37.3446C86.9605 37.5019 87.2182 37.6009 87.4881 37.6323C87.758 37.6636 88.0315 37.6265 88.2833 37.5241L88.5563 37.4236C88.2768 37.52 87.9748 37.5305 87.6893 37.4536C87.4038 37.3768 87.1478 37.2162 86.9544 36.9926C86.4875 35.9869 87.055 34.7802 87.4429 33.9828C87.4681 33.9238 87.5076 33.872 87.5578 33.832C87.5574 33.7741 87.5723 33.7171 87.6009 33.6668C88.0458 32.7422 88.6031 31.876 89.2602 31.088ZM92.3418 29.8094C91.7344 29.9573 91.1754 30.2591 90.7184 30.6857C89.8985 31.4064 89.2106 32.2644 88.6856 33.2214C89.6623 32.9194 90.5534 32.3902 91.2859 31.677C92.0617 30.894 92.5789 30.0752 92.4783 29.8597C92.4694 29.8468 92.4576 29.8363 92.4439 29.8288C92.4302 29.8213 92.4149 29.8171 92.3993 29.8166L92.3418 29.8094ZM93.2254 30.0033C92.9913 30.8346 92.5254 31.5821 91.8821 32.1583C92.1412 32.0066 92.3822 31.8258 92.6004 31.6195C92.8734 31.3035 93.4624 30.6211 93.2254 30.0033Z" fill="white"/>
<path d="M103.437 29.1396C103.297 29.0955 103.146 29.0955 103.006 29.1396C102.711 29.2194 102.433 29.3534 102.187 29.5347C100.995 30.3917 99.9124 31.3903 98.9617 32.5086C97.8555 33.6866 96.8067 34.9077 95.7436 36.1002C95.3126 36.6389 94.8457 37.1776 94.4147 37.7523C94.3458 37.8541 94.2425 37.9276 94.1237 37.9593C94.0049 37.991 93.8787 37.9787 93.7682 37.9247C93.5599 37.8169 93.524 37.5655 93.4881 37.3931C93.4651 36.6427 93.5497 35.8928 93.7395 35.1663C94.0746 33.6418 94.616 32.1701 95.3485 30.7918C95.5287 30.4187 95.8005 30.0974 96.1387 29.858C96.3829 29.7143 96.857 29.5347 97.1371 29.7861C97.4173 30.0375 97.0653 30.6122 96.9216 30.8564C96.7061 31.2946 96.4547 31.6825 96.2751 32.1135C95.8573 33.0002 95.488 33.909 95.1689 34.8359C94.9175 35.4824 94.7379 36.1935 94.5584 36.84C95.1689 36.2654 95.6718 35.583 96.2464 34.9796C97.0294 34.0817 97.7836 33.191 98.5666 32.329C99.536 31.143 100.662 30.0942 101.914 29.2115C102.345 28.9672 103.308 28.4931 103.631 29.1037C103.688 29.2833 103.509 29.1755 103.437 29.1396Z" fill="white"/>
<path d="M94.0151 38.341C93.8757 38.3442 93.7385 38.3068 93.62 38.2333C93.4874 38.1532 93.3762 38.042 93.2961 37.9093C93.216 37.7767 93.1694 37.6266 93.1603 37.4719C93.1155 36.6619 93.1979 35.8499 93.4045 35.0655C93.7412 33.5038 94.2847 31.9939 95.0207 30.576C95.2289 30.1516 95.5401 29.7861 95.9258 29.5129C96.1403 29.3553 96.3995 29.2704 96.6657 29.2704C96.9318 29.2704 97.191 29.3553 97.4056 29.5129C97.8725 29.9798 97.4774 30.6478 97.2906 30.9495L96.9961 31.4883C96.8668 31.7325 96.7303 31.9767 96.6226 32.2066C96.2087 33.0868 95.8418 33.9883 95.5236 34.9075C95.4661 35.0583 95.4086 35.2092 95.3583 35.36C95.5595 35.1301 95.7606 34.8931 95.9761 34.6417L96.7806 33.7222C97.2834 33.1404 97.7863 32.5586 98.2963 31.9983C99.2873 30.8038 100.432 29.7458 101.701 28.852C102.188 28.4913 102.797 28.3365 103.396 28.421C103.517 28.4569 103.63 28.5176 103.726 28.5992C103.823 28.6809 103.901 28.7816 103.957 28.8951C103.994 28.9836 104.006 29.0806 103.993 29.1756C103.979 29.2706 103.939 29.3599 103.878 29.4339C103.793 29.4942 103.691 29.5266 103.587 29.5266C103.482 29.5266 103.381 29.4942 103.296 29.4339L103.404 29.1753L103.274 29.4267C103.274 29.4267 103.202 29.4267 103.102 29.4267C102.842 29.4887 102.597 29.6036 102.384 29.7643C101.276 30.5549 100.268 31.4762 99.3809 32.5083L99.2157 32.6807C98.2029 33.7653 97.1541 34.9434 96.0048 36.2723L95.5667 36.811C95.2721 37.163 94.9776 37.5293 94.6975 37.9029C94.6236 38.0222 94.524 38.1234 94.4059 38.1992C94.2878 38.275 94.1543 38.3235 94.0151 38.341ZM96.8381 29.9942C96.6657 30.0056 96.4984 30.0573 96.3496 30.145C96.0776 30.3469 95.8603 30.6136 95.7175 30.9208C94.9985 32.2802 94.4646 33.7297 94.13 35.2307C93.9485 35.934 93.8687 36.6597 93.893 37.3857C93.893 37.436 93.9361 37.5868 93.972 37.6083C94.0079 37.6299 94.1587 37.5293 94.1587 37.5293C94.2459 37.4049 94.3394 37.285 94.4389 37.1702C94.3682 37.1297 94.3133 37.0665 94.2833 36.9908C94.2533 36.9151 94.2499 36.8314 94.2737 36.7535L94.3599 36.4159C94.5179 35.8556 94.6759 35.2666 94.8914 34.7135C95.2094 33.7748 95.5836 32.8561 96.012 31.9623C96.1303 31.6912 96.2646 31.4274 96.4143 31.1722L96.6585 30.7053C96.6585 30.7053 96.7088 30.6191 96.7088 30.6119C96.8884 30.3174 96.9602 30.1306 96.9386 30.0588C96.9346 30.0459 96.928 30.034 96.9192 30.0238C96.9105 30.0135 96.8998 30.0051 96.8877 29.9991C96.8756 29.993 96.8625 29.9895 96.849 29.9887C96.8356 29.9878 96.8221 29.9897 96.8093 29.9942H96.8381Z" fill="white"/>
<path d="M126.07 14.8971C126.07 15.0408 125.89 15.2204 125.818 15.3281C124.211 17.1672 122.751 19.1295 121.451 21.1968C118.944 25.047 116.516 28.969 114.038 32.8336C115.043 32.3307 116.085 31.8279 117.119 31.3969C118.039 30.9248 119.001 30.54 119.993 30.2476C119.993 30.2476 120.208 30.2476 120.136 30.2476C120.006 30.3522 119.861 30.4369 119.705 30.499C117.658 31.5119 115.568 32.5103 113.542 33.6165C112.68 34.9454 111.825 36.2312 110.963 37.5242C109.278 40.1944 107.41 42.7457 105.375 45.1599C104.332 46.3504 103.175 47.4355 101.92 48.3996C101.022 49.0461 98.9818 50.4827 98.1629 49.0461C97.4805 47.868 98.3066 45.9357 98.9531 44.8223C99.7381 43.4966 100.705 42.2877 101.826 41.2307C104.145 39.0184 106.704 37.0717 109.455 35.4267C110.173 34.967 110.956 34.536 111.71 34.105C112.924 32.1368 114.138 30.1686 115.395 28.2004C116.293 26.7638 117.184 25.3702 118.118 23.9767C116.724 25.5857 115.257 27.1253 113.715 28.5955C111.761 30.548 109.484 32.1472 106.984 33.322C105.806 33.8177 103.83 34.536 103.012 33.0706C102.365 31.634 102.976 30.0609 103.514 28.696C104.713 26.1555 106.279 23.8054 108.162 21.7212C109.491 20.0331 111.035 18.5677 111.818 16.5277C112.034 15.7447 111.351 15.5292 110.597 15.5292C109.812 15.5472 109.031 15.6533 108.27 15.8453C106.502 16.2748 104.795 16.9265 103.191 17.7848C101.738 18.5545 100.378 19.4897 99.1398 20.5718C98.0372 21.5351 97.1677 22.7361 96.597 24.0844C96.4432 24.4873 96.2657 24.8807 96.0654 25.2625C95.8858 25.5498 95.5985 25.6576 95.4548 25.2625C95.4005 24.9922 95.4005 24.7138 95.4548 24.4436C95.602 23.7302 95.9227 23.0641 96.3887 22.5041C97.3361 21.2834 98.4765 20.2256 99.7648 19.3722C101.033 18.5044 102.36 17.7267 103.737 17.0449C105.141 16.3477 106.602 15.7733 108.104 15.3281C108.861 15.0956 109.642 14.9509 110.432 14.8971C110.787 14.8297 111.153 14.8573 111.493 14.9772C111.834 15.097 112.137 15.3048 112.371 15.5795C112.903 16.5062 111.761 18.5103 111.186 19.48C109.577 22.2383 107.393 24.6663 105.641 27.3815C104.714 28.6475 104.043 30.0822 103.665 31.6052C103.522 32.7186 103.988 33.4657 105.425 33.2215C106.931 32.8974 108.354 32.2666 109.606 31.3682C110.896 30.5086 112.117 29.5478 113.255 28.4949C115.538 26.2976 117.667 23.9455 119.626 21.4554C121.271 19.5231 122.564 17.3394 124.245 15.443C124.507 15.0745 124.868 14.788 125.287 14.617C125.531 14.538 126.106 14.4302 126.07 14.8971ZM111.179 34.9095C108.246 36.5797 105.509 38.5722 103.019 40.85C101.914 41.8804 100.917 43.0213 100.045 44.2549C99.3984 45.3252 98.2922 47.3652 98.7232 48.4355C99.1542 49.5058 100.943 48.0835 101.403 47.7172C102.617 46.7359 103.733 45.6389 104.736 44.4416C106.758 41.9135 108.602 39.2468 110.252 36.4611C110.54 35.9439 110.892 35.4052 111.179 34.9095Z" fill="white"/>
<path d="M99.2347 50.0375C99.1113 50.0374 98.9884 50.0229 98.8684 49.9944C98.6537 49.9504 98.4515 49.8593 98.2763 49.7276C98.1012 49.5959 97.9574 49.427 97.8555 49.233C97.0079 47.7963 98.1285 45.5264 98.6457 44.6357C99.4352 43.2692 100.42 42.0254 101.569 40.9436C103.904 38.7118 106.485 36.7526 109.262 35.1036C109.981 34.6583 110.699 34.2345 111.417 33.825L111.468 33.7316C112.653 31.8209 113.838 29.903 115.059 27.9851L115.433 27.3889C114.952 27.8845 114.456 28.373 113.953 28.8255C111.977 30.824 109.668 32.4624 107.129 33.667C106.202 34.0621 103.731 35.1036 102.69 33.2575C101.972 31.6629 102.69 29.8743 103.164 28.5669C104.378 25.9769 105.968 23.5806 107.883 21.4555C108.199 21.0461 108.537 20.651 108.875 20.2488C109.953 19.1108 110.832 17.7995 111.475 16.3698C111.494 16.3243 111.504 16.2755 111.504 16.2262C111.504 16.1768 111.494 16.128 111.475 16.0825C111.439 16.0322 111.259 15.8742 110.627 15.8742C109.871 15.8886 109.118 15.9923 108.386 16.1831C105.07 16.9899 101.995 18.5813 99.4215 20.8234C98.3564 21.7411 97.5201 22.8947 96.9792 24.1923C96.9145 24.3288 96.8643 24.4581 96.8068 24.5874C96.6987 24.878 96.5665 25.1592 96.4117 25.4278C96.3521 25.5658 96.2507 25.6816 96.1219 25.7589C95.993 25.8362 95.8432 25.8712 95.6934 25.8588C95.5625 25.8402 95.4401 25.7832 95.3416 25.695C95.2432 25.6067 95.1731 25.4913 95.1403 25.3632C95.0508 25.0382 95.0312 24.6979 95.0828 24.3647C95.237 23.588 95.5826 22.8621 96.0885 22.2529C97.0797 20.998 98.2713 19.9155 99.6154 19.0492C100.9 18.1777 102.242 17.393 103.631 16.7003C105.044 16.0046 106.515 15.4326 108.027 14.9907C108.81 14.7442 109.621 14.5946 110.441 14.5453C110.85 14.5453 112.129 14.4519 112.71 15.4073C113.292 16.3626 112.394 18.2375 111.532 19.7172C110.566 21.2691 109.513 22.7656 108.379 24.1995C107.56 25.2842 106.712 26.4119 105.958 27.5613C105.069 28.7881 104.427 30.1763 104.069 31.6485C104.029 31.8224 104.026 32.0029 104.062 32.1778C104.098 32.3526 104.171 32.5176 104.277 32.6613C104.441 32.7661 104.625 32.8345 104.817 32.8618C105.009 32.889 105.205 32.8746 105.391 32.8194C106.835 32.5067 108.2 31.9057 109.406 31.0523C110.678 30.1918 111.879 29.2309 112.998 28.179C115.264 26.0095 117.381 23.6888 119.333 21.2329C120.109 20.3278 120.813 19.3437 121.488 18.4027C122.257 17.3324 123.054 16.2477 123.952 15.2062C124.253 14.7913 124.664 14.4681 125.137 14.2723C125.299 14.1909 125.477 14.1484 125.658 14.1484C125.839 14.1484 126.017 14.1909 126.179 14.2723C126.27 14.3405 126.342 14.4314 126.388 14.536C126.433 14.6406 126.45 14.7552 126.438 14.8685C126.413 15.0759 126.322 15.2699 126.179 15.4216L126.1 15.5294C124.513 17.3525 123.071 19.298 121.79 21.3478C120.253 23.7182 118.751 26.0887 117.25 28.452C116.532 29.5965 115.814 30.7338 115.095 31.864C115.77 31.5408 116.395 31.2462 116.992 30.9805L117.157 30.9086C118.052 30.4585 118.988 30.093 119.951 29.8168C120.253 29.7593 120.44 29.8168 120.533 30.0035C120.566 30.0803 120.577 30.1647 120.564 30.2473C120.551 30.3299 120.516 30.4072 120.461 30.4705C120.332 30.5878 120.184 30.6825 120.023 30.7506L119.93 30.7937L118.004 31.7419C116.625 32.4171 115.21 33.1139 113.831 33.8968C112.983 35.197 112.143 36.4541 111.295 37.7183L110.9 38.3145C109.324 40.788 107.581 43.1518 105.685 45.39C104.627 46.5978 103.458 47.7041 102.194 48.6942C101.196 49.3766 100.169 50.0375 99.2347 50.0375ZM98.4158 48.6799L98.502 48.8595C98.5533 48.9612 98.6261 49.0506 98.7154 49.1213C98.8047 49.192 98.9084 49.2424 99.0192 49.2689C99.8525 49.4413 101.174 48.4644 101.72 48.098C102.946 47.1441 104.077 46.0736 105.096 44.9015C106.971 42.6883 108.694 40.3509 110.254 37.9051L110.649 37.3161C111.504 36.0303 112.366 34.7373 113.228 33.4156C113.26 33.3626 113.308 33.3202 113.364 33.2935L113.759 33.078C113.709 33.0146 113.682 32.9361 113.682 32.8553C113.682 32.7745 113.709 32.696 113.759 32.6326L116.632 28.1C118.134 25.7295 119.635 23.3519 121.165 20.9958C122.47 18.9108 123.94 16.9338 125.561 15.084L125.619 14.9907L125.676 14.9116C125.6 14.9251 125.525 14.9467 125.453 14.9763C125.098 15.1261 124.794 15.3756 124.577 15.6946C123.672 16.7146 122.889 17.8065 122.128 18.8552C121.366 19.904 120.691 20.809 119.973 21.7285L118.313 23.6105C118.388 23.6688 118.437 23.7531 118.452 23.8464C118.466 23.9397 118.445 24.035 118.392 24.1133C117.53 25.4135 116.64 26.7927 115.677 28.337C114.463 30.2478 113.278 32.1585 112.085 34.0836L111.978 34.256C111.945 34.309 111.898 34.3514 111.841 34.3781L111.403 34.6295C111.455 34.6875 111.487 34.7605 111.495 34.838C111.503 34.9155 111.486 34.9934 111.446 35.0605C111.159 35.5705 110.836 36.1165 110.512 36.6193L109.988 37.4453C108.488 39.9585 106.808 42.3593 104.96 44.6286C103.947 45.8505 102.816 46.9693 101.584 47.9687L101.469 48.0621C100.65 48.7086 99.6873 49.3407 98.9905 49.154C98.8678 49.1175 98.7538 49.0567 98.655 48.9752C98.5563 48.8938 98.475 48.7934 98.4158 48.6799ZM110.081 36.0087C107.644 37.4777 105.362 39.1914 103.272 41.1231C102.186 42.1267 101.207 43.2387 100.348 44.4418C99.2778 46.2232 98.8037 47.6239 99.0623 48.2776C99.127 48.4285 99.1916 48.45 99.2275 48.4572C99.5508 48.529 100.147 48.213 101.059 47.5018L101.174 47.4084C102.367 46.4385 103.462 45.3534 104.443 44.1688C106.264 41.9196 107.923 39.5431 109.406 37.0575L109.931 36.2242L110.081 36.0087ZM111.971 17.0953C111.304 18.4225 110.452 19.6486 109.442 20.7372C109.112 21.1323 108.781 21.5274 108.458 21.9296C106.596 23.991 105.048 26.3144 103.861 28.8255C103.351 30.0754 102.762 31.6054 103.351 32.8912C103.451 33.074 103.596 33.2288 103.772 33.3416C103.947 33.4545 104.148 33.5219 104.356 33.5377C104.131 33.4746 103.924 33.3589 103.753 33.2001C103.554 32.9726 103.413 32.7 103.343 32.4058C103.273 32.1117 103.276 31.8049 103.351 31.512C103.732 29.9349 104.42 28.4484 105.376 27.1375C106.138 25.9666 107 24.8316 107.819 23.7326C108.927 22.3164 109.951 20.8365 110.886 19.3006C111.321 18.604 111.684 17.8651 111.971 17.0953ZM97.6472 21.5776C97.2932 21.9347 96.9621 22.3137 96.6559 22.7126C96.2262 23.218 95.9298 23.8231 95.794 24.4725C95.7726 24.6418 95.7726 24.8132 95.794 24.9825C95.9017 24.7814 95.9951 24.5515 96.0957 24.3145L96.2681 23.905C96.6076 23.064 97.0726 22.2793 97.6472 21.5776ZM125.698 14.8685H126.064L125.698 14.8254V14.8685Z" fill="white"/>
<path d="M125.187 33.405C124.109 34.4753 123.032 35.56 121.933 36.5872C121.481 36.9899 121.001 37.3596 120.496 37.6934C120.173 37.8729 119.778 37.9089 119.606 37.521C119.475 36.9936 119.523 36.4379 119.742 35.9407C119.869 35.6065 120.025 35.2844 120.209 34.9781C119.698 35.4485 119.161 35.8897 118.6 36.2998C118.109 36.6664 117.595 37.0023 117.063 37.3055C116.56 37.5856 115.878 37.9807 115.303 37.6934C114.728 37.406 114.699 36.4076 114.807 35.797C114.976 35.039 115.278 34.3168 115.698 33.6636C116.501 32.3992 117.594 31.3451 118.887 30.5892C120.065 29.8709 121.574 29.1525 122.967 29.4399C123.251 29.466 123.521 29.5706 123.748 29.7419C123.975 29.9132 124.15 30.1444 124.253 30.4096C124.301 30.5187 124.305 30.6419 124.265 30.7541C124.225 30.8663 124.144 30.9589 124.038 31.013C123.786 31.092 123.722 31.013 123.614 30.7975C123.039 29.6195 121.638 29.799 120.64 30.2659C119.501 30.8678 118.517 31.726 117.767 32.7729C116.973 33.768 116.334 34.8771 115.87 36.0628C115.619 36.7452 115.691 37.3198 116.66 36.8529C117.325 36.5474 117.95 36.1614 118.521 35.7036C119.606 34.8249 120.591 33.8301 121.459 32.737C121.567 32.5215 121.71 32.3419 121.818 32.1264C122.098 31.6595 122.924 31.1207 123.391 31.6236C123.671 31.875 123.391 32.2701 123.247 32.5215C122.996 32.8806 122.781 33.1967 122.529 33.5558C121.724 34.7116 120.983 35.9106 120.31 37.1474C121.11 36.6865 121.836 36.1077 122.465 35.4307C123.291 34.7123 124.109 33.8863 124.9 33.0674C125.223 32.7082 125.618 32.3491 125.941 32.0258C125.941 32.0258 126.66 31.3793 126.66 31.4871C126.66 31.5948 126.343 32.112 125.187 33.405Z" fill="white"/>
<path d="M120.086 38.1994C119.991 38.2002 119.897 38.1857 119.806 38.1563C119.691 38.1168 119.586 38.0535 119.497 37.9706C119.408 37.8877 119.337 37.787 119.289 37.675C119.12 37.2111 119.12 36.7024 119.289 36.2384L118.851 36.576C118.344 36.9523 117.814 37.2954 117.263 37.6032C116.725 37.9193 115.92 38.3862 115.166 38.0055C114.412 37.6248 114.261 36.8777 114.448 35.7068C114.611 34.911 114.917 34.1516 115.353 33.4657C116.186 32.1515 117.321 31.0555 118.664 30.2692C119.885 29.5508 121.458 28.8325 123.01 29.0696C123.365 29.1027 123.703 29.2376 123.983 29.458C124.264 29.6784 124.474 29.975 124.59 30.3123C124.664 30.5082 124.66 30.7247 124.58 30.918C124.5 31.1113 124.35 31.2671 124.159 31.3538C123.992 31.4108 123.81 31.4108 123.642 31.3538C124.102 31.7561 123.75 32.3523 123.592 32.6109C123.592 32.6109 123.534 32.7043 123.534 32.7186C123.283 33.0634 123.075 33.3795 122.866 33.7315C122.658 34.0834 122.414 34.4498 122.148 34.7658C121.882 35.0819 121.66 35.4842 121.43 35.8721L122.069 35.283L122.22 35.1322C123.139 34.2989 123.929 33.5303 124.648 32.7833C124.856 32.5462 125.093 32.3164 125.366 32.065L125.725 31.713C126.063 31.3826 126.53 30.9947 126.81 31.0665C126.875 31.0819 126.935 31.1129 126.985 31.1567C127.035 31.2005 127.073 31.2558 127.097 31.3179C127.227 31.6627 127.011 31.8998 126.106 32.8695L125.438 33.5878L124.791 34.2343C123.944 35.0891 123.06 35.9798 122.17 36.7915L121.889 37.0214C121.522 37.3541 121.131 37.6591 120.719 37.9336C120.536 38.0785 120.318 38.1704 120.086 38.1994ZM120.309 34.6078C120.371 34.6177 120.428 34.6451 120.474 34.6868C120.544 34.7434 120.591 34.8237 120.606 34.9124C120.62 35.0012 120.602 35.0922 120.553 35.1681C120.384 35.4592 120.239 35.7645 120.122 36.0804C119.931 36.4728 119.876 36.9173 119.964 37.3446C120 37.4308 120.029 37.438 120.043 37.4452C120.067 37.4524 120.092 37.4524 120.115 37.4452C120.061 37.3903 120.026 37.3198 120.014 37.2437C120.003 37.1677 120.015 37.0899 120.051 37.0214C120.502 36.1085 121.016 35.2277 121.588 34.3851C121.81 34.0475 122.04 33.7171 122.256 33.3723C122.471 33.0275 122.687 32.6899 122.974 32.3236V32.2661C123.05 32.157 123.106 32.0355 123.139 31.9069C123.109 31.8716 123.069 31.8445 123.025 31.8282C122.982 31.8119 122.934 31.8069 122.888 31.8136C122.591 31.8925 122.335 32.0795 122.17 32.3379C122.119 32.4437 122.059 32.5446 121.99 32.6396C121.933 32.733 121.875 32.8192 121.825 32.9198C121.308 33.5016 120.833 34.0763 120.309 34.615V34.6078ZM118.815 31.0881C117.685 31.7966 116.728 32.7488 116.014 33.8751C115.629 34.4857 115.354 35.1592 115.202 35.8649C115.058 36.6694 115.159 37.1794 115.511 37.359C115.647 37.4236 115.802 37.4388 115.949 37.4021C115.821 37.3792 115.702 37.3221 115.604 37.2369C115.417 37.0645 115.245 36.7053 115.525 35.9511C115.998 34.7288 116.655 33.5856 117.472 32.5606C117.878 32.0358 118.327 31.5456 118.815 31.0952V31.0881ZM122.098 30.2979C121.645 30.3177 121.2 30.4276 120.79 30.6211C119.703 31.1928 118.767 32.0152 118.061 33.0203C117.288 33.9828 116.667 35.0585 116.222 36.2097C116.156 36.3592 116.122 36.5205 116.121 36.6838C116.121 36.6838 116.272 36.6407 116.495 36.5329C117.134 36.2423 117.735 35.8731 118.283 35.4339C119.343 34.5676 120.306 33.5899 121.157 32.5175C121.196 32.4162 121.246 32.3198 121.308 32.2302C121.367 32.1458 121.42 32.057 121.466 31.9644C121.61 31.7279 121.804 31.5249 122.033 31.3688C122.262 31.2128 122.521 31.1073 122.795 31.0593C122.993 31.0371 123.193 31.0746 123.369 31.1671C123.328 31.1056 123.292 31.0407 123.261 30.9731C123.154 30.7603 122.986 30.5837 122.78 30.4649C122.573 30.3462 122.336 30.2907 122.098 30.3051V30.2979ZM123.506 30.0752C123.67 30.2249 123.806 30.4024 123.908 30.5996C123.908 30.5996 123.908 30.5996 123.908 30.5565C123.877 30.4531 123.826 30.357 123.757 30.2742C123.687 30.1915 123.602 30.1237 123.506 30.0752Z" fill="white"/>
<path d="M130.844 33.2994C130.628 33.2994 130.269 33.2563 130.018 33.2563C129.637 33.2493 129.255 33.2637 128.876 33.2994C129.02 33.6995 129.057 34.1304 128.984 34.5493C128.823 35.2583 128.486 35.9152 128.004 36.459C127.522 37.0028 126.91 37.4158 126.225 37.6596C125.546 37.9477 124.804 38.0589 124.07 37.9829C123.911 37.971 123.757 37.9215 123.62 37.8386C123.483 37.7556 123.368 37.6415 123.284 37.5056C123.2 37.3697 123.149 37.2159 123.136 37.0566C123.123 36.8973 123.148 36.7372 123.208 36.5893C123.459 35.9002 123.879 35.2851 124.429 34.8007C124.997 34.3036 125.643 33.9032 126.34 33.6155C126.666 33.4622 127.002 33.3303 127.346 33.2204C126.807 32.4015 126.053 31.5036 126.448 30.3974C126.558 30.1211 126.727 29.8721 126.943 29.6675C127.158 29.4628 127.416 29.3075 127.698 29.2122C128.236 28.9967 129.17 28.8889 129.529 29.4636C129.889 30.0382 129.278 30.7566 128.739 31.008C128.604 31.0706 128.457 31.1071 128.308 31.1157C128.308 31.0726 128.739 30.7566 128.775 30.7135C128.991 30.5411 129.314 30.1819 129.235 29.8587C129.156 29.5354 128.632 29.5713 128.38 29.6432C127.734 29.8227 127.023 30.3615 127.303 31.0798C127.583 31.7981 128.495 32.2291 128.768 32.9474C129.33 32.8928 129.898 32.9292 130.449 33.0552C130.593 33.1126 131.095 33.2994 130.844 33.2994ZM127.511 33.5796C126.161 33.9296 124.966 34.7179 124.113 35.8207C123.862 36.144 123.18 37.1855 123.862 37.4657C124.544 37.7458 125.399 37.2933 125.938 36.9341C127.015 36.2661 127.978 34.8725 127.511 33.5796Z" fill="white"/>
<path d="M124.521 38.3841C124.353 38.3946 124.185 38.3946 124.018 38.3841C123.824 38.3698 123.636 38.3127 123.467 38.2171C123.298 38.1214 123.153 37.9896 123.041 37.831C122.918 37.6393 122.837 37.4233 122.805 37.1977C122.773 36.9721 122.79 36.7422 122.854 36.5237C123.121 35.7565 123.579 35.0695 124.183 34.5267C124.781 34 125.46 33.5731 126.194 33.2625L126.762 33.0254C126.259 32.3071 125.699 31.3661 126.094 30.2599C126.22 29.9258 126.42 29.6237 126.677 29.3754C126.934 29.1271 127.242 28.9385 127.581 28.8233C128.342 28.5144 129.391 28.5072 129.843 29.2327C129.93 29.3663 129.986 29.5171 130.008 29.6746C130.03 29.8321 130.018 29.9926 129.973 30.145C129.879 30.4009 129.736 30.6356 129.551 30.8354C129.366 31.0352 129.143 31.1961 128.895 31.3087C128.701 31.4092 128.27 31.5744 128.04 31.3087C127.966 31.2261 127.928 31.1177 127.933 31.007C127.933 30.7986 128.098 30.6909 128.428 30.4467L128.522 30.3748C128.773 30.1665 128.888 29.951 128.874 29.8792C128.743 29.8846 128.613 29.9039 128.486 29.9367C128.317 29.9741 128.158 30.0449 128.017 30.1448C127.877 30.2447 127.758 30.3718 127.667 30.5185C127.636 30.5787 127.621 30.6451 127.621 30.7124C127.621 30.7798 127.636 30.8462 127.667 30.9064C127.829 31.1803 128.038 31.4234 128.285 31.6247C128.572 31.874 128.815 32.1703 129.003 32.5011C129.521 32.4669 130.042 32.5105 130.547 32.6304C131.33 32.8243 131.266 33.1116 131.266 33.2338C131.242 33.3326 131.186 33.4208 131.107 33.4845C131.027 33.5482 130.929 33.5838 130.827 33.5857H130.425H129.973H129.333C129.391 33.9064 129.391 34.2348 129.333 34.5555C129.089 36.2507 127.631 37.4287 126.352 37.9531C125.773 38.2061 125.152 38.3521 124.521 38.3841ZM127.703 33.2553C127.779 33.2967 127.836 33.3664 127.861 33.4492C128.392 34.8859 127.365 36.4806 126.13 37.2204L125.864 37.3928L126.094 37.3066C126.714 37.0825 127.269 36.7079 127.709 36.2165C128.149 35.7251 128.46 35.1321 128.615 34.4908C128.676 34.1296 128.644 33.7587 128.522 33.4133C128.504 33.3548 128.504 33.2923 128.522 33.2338C128.477 33.1929 128.445 33.1408 128.428 33.0829C128.282 32.7478 128.058 32.4523 127.775 32.2209C127.453 31.9445 127.185 31.6109 126.984 31.2368C126.911 31.0767 126.873 30.9028 126.873 30.7268C126.873 30.5508 126.911 30.3769 126.984 30.2168C127.05 30.0932 127.13 29.9776 127.221 29.872C127.026 30.0406 126.875 30.2554 126.783 30.4969C126.496 31.3015 126.956 31.9839 127.451 32.7022L127.638 32.9895C127.667 33.0266 127.688 33.0696 127.699 33.1154C127.71 33.1612 127.712 33.209 127.703 33.2553ZM127.243 34.0455C126.12 34.3964 125.133 35.0834 124.413 36.0136C124.149 36.2955 123.985 36.6565 123.946 37.0408C124.258 37.1035 124.581 37.0961 124.89 37.0191C125.199 36.942 125.488 36.7974 125.734 36.5955C126.194 36.3476 126.577 35.9792 126.843 35.5299C127.109 35.0806 127.247 34.5674 127.243 34.0455Z" fill="white"/>
<path d="M128.693 37.1357C130.309 34.09 131.883 31.0156 133.52 27.9268C135.093 24.9889 136.71 22.0941 138.319 19.1921C138.506 18.8459 138.748 18.5329 139.037 18.2654C139.224 18.1146 139.612 17.7985 139.827 18.0428C140.043 18.287 139.827 18.5815 139.719 18.7611C138.074 21.8139 136.501 24.8883 134.885 27.9268C133.851 29.8232 132.845 31.7196 131.811 33.5441C132.026 33.3286 132.27 33.0844 132.493 32.8258C133.602 31.729 134.868 30.8041 136.25 30.0818C136.968 29.7226 138.039 29.3635 138.29 30.5128C138.341 31.2175 138.165 31.92 137.787 32.5169C137.052 33.8284 136.238 35.0949 135.352 36.3096C135.28 36.4174 134.777 37.1357 134.957 37.2075C136.25 36.7047 137.356 35.4117 138.398 34.4492C139.439 33.4866 140.186 32.5169 141.185 31.619C141.228 31.619 141.436 31.4394 141.479 31.4753C141.522 31.5113 141.4 31.6908 141.372 31.7268C140.911 32.3012 140.419 32.8503 139.899 33.3717C138.865 34.4851 137.967 35.3758 136.896 36.4174C136.537 36.7766 134.461 38.7807 134.138 37.423C134.056 36.7278 134.194 36.0242 134.533 35.4117C135.19 34.0342 135.966 32.717 136.853 31.4753C137.03 31.2214 137.175 30.9463 137.284 30.6565C137.356 30.2973 137.04 30.3332 136.645 30.441C135.669 30.8019 134.778 31.3621 134.03 32.0859C132.417 33.3269 131.077 34.887 130.094 36.6688C129.918 37.0223 129.674 37.3373 129.376 37.5954C129.196 37.7463 128.801 38.0623 128.585 37.8468C128.37 37.6313 128.621 37.3153 128.693 37.1357Z" fill="white"/>
<path d="M128.75 38.2838C128.589 38.2826 128.434 38.2182 128.319 38.1042C127.996 37.7738 128.211 37.2997 128.319 37.077V36.9908V36.9477C129.275 35.1376 130.223 33.313 131.192 31.4813C131.834 30.241 132.478 28.9983 133.125 27.7532C134.662 24.8799 136.257 22.0067 137.801 19.234L137.93 19.0113C138.135 18.6255 138.405 18.278 138.728 17.9841C139.309 17.51 139.748 17.4525 140.042 17.8045C140.337 18.1565 140.143 18.5803 140.042 18.8101L139.999 18.8963C139.166 20.4766 138.361 22.0282 137.55 23.5726C136.738 25.117 135.976 26.5967 135.186 28.098C134.834 28.7373 134.468 29.3695 134.152 30.0016C133.872 30.5188 133.592 31.0431 133.304 31.5603C134.155 30.8697 135.069 30.2612 136.034 29.743C136.306 29.5519 136.619 29.4266 136.948 29.3767C137.277 29.3269 137.613 29.3539 137.93 29.4556C138.121 29.5457 138.286 29.6813 138.411 29.8504C138.536 30.0196 138.618 30.2171 138.649 30.4254C138.719 31.2158 138.53 32.0076 138.11 32.6809C137.606 33.6341 137.032 34.5489 136.393 35.4177C136.192 35.7122 135.991 35.9995 135.797 36.2941C136.386 35.8405 136.943 35.346 137.463 34.8143C137.686 34.5916 137.909 34.369 138.131 34.1678L139.137 33.1263C139.697 32.5301 140.279 31.9123 140.926 31.3376C140.959 31.3096 140.995 31.2855 141.033 31.2658C141.22 31.1509 141.479 30.9785 141.752 31.194C141.824 31.2658 142.068 31.5675 141.658 31.9841C141.207 32.5563 140.728 33.1053 140.222 33.6291C139.288 34.6276 138.412 35.5183 137.212 36.6748C136.537 37.35 135.294 38.4634 134.454 38.2192C134.292 38.1708 134.148 38.0777 134.037 37.9505C133.926 37.8234 133.854 37.6674 133.829 37.5008C133.719 36.7229 133.868 35.9306 134.252 35.2453C134.862 33.9588 135.583 32.7281 136.407 31.5675L136.609 31.2586C136.609 31.2155 136.68 31.1365 136.731 31.0647L136.91 30.763H136.81C135.947 31.0806 135.158 31.5693 134.49 32.1996L134.331 32.3289C132.756 33.5346 131.448 35.0534 130.488 36.7897C130.295 37.1889 130.021 37.5436 129.684 37.8313C129.435 38.0868 129.105 38.2469 128.75 38.2838ZM137.435 30.0734L137.499 30.1237C137.575 30.1979 137.629 30.2909 137.657 30.3932C137.685 30.4954 137.685 30.6032 137.657 30.7055C137.577 30.9625 137.455 31.205 137.298 31.4238L136.961 31.9482C136.162 33.083 135.462 34.2847 134.87 35.5398C134.563 36.0774 134.435 36.6988 134.504 37.3141C134.504 37.3715 134.547 37.4721 134.597 37.4865C134.645 37.4972 134.694 37.4972 134.741 37.4865C134.663 37.4274 134.603 37.3478 134.569 37.2566C134.504 37.0483 134.569 36.7897 135.035 36.1001C135.287 35.7122 135.545 35.3818 135.797 34.9795C136.41 34.135 136.964 33.2494 137.456 32.3289C137.797 31.7969 137.96 31.1708 137.923 30.5403C137.851 30.2099 137.7 30.1381 137.65 30.1165C137.582 30.0864 137.509 30.0717 137.435 30.0734ZM129.03 37.2566L128.987 37.35C128.987 37.35 128.987 37.35 128.987 37.3931L129.152 37.2638C129.41 37.0396 129.62 36.766 129.77 36.4593C130.266 35.4845 130.897 34.5848 131.645 33.7871C131.57 33.7421 131.515 33.6703 131.491 33.5863C131.467 33.5023 131.476 33.4124 131.516 33.3346C132.234 32.1206 132.88 30.8707 133.563 29.6209L134.59 27.7173C135.387 26.2232 136.17 24.7147 136.953 23.1991C137.736 21.6834 138.548 20.1247 139.36 18.5803L139.396 18.4941L139.439 18.3935L139.266 18.5803C139.014 18.8192 138.803 19.0984 138.641 19.4063L138.512 19.6362C136.968 22.4089 135.373 25.2822 133.843 28.1411L131.911 31.8548C130.934 33.665 129.993 35.4752 129.03 37.2925V37.2566Z" fill="white"/>
<path d="M145.991 31.7207C145.855 31.9278 145.699 32.1204 145.524 32.2954C144.149 33.8115 142.652 35.2122 141.048 36.4832C140.526 36.9349 139.977 37.3547 139.404 37.7402C139.276 37.8367 139.124 37.8941 138.964 37.9056C138.805 37.9171 138.645 37.8821 138.506 37.8049C138.385 37.7015 138.296 37.5672 138.246 37.4165C138.197 37.2659 138.19 37.1046 138.225 36.9501C138.453 36.1332 138.789 35.3504 139.224 34.6227C140.014 33.1861 140.797 31.8285 141.659 30.4349C141.863 30.044 142.21 29.7477 142.629 29.6089C142.916 29.5011 143.448 29.537 143.347 29.968C142.934 30.8982 142.431 31.7859 141.846 32.6186C140.948 34.1199 139.985 35.5494 139.195 37.0938C140.22 36.5745 141.171 35.9224 142.025 35.1543C142.988 34.3354 143.922 33.4734 144.856 32.5827C145.171 32.2531 145.504 31.9414 145.854 31.6489C146.026 31.5124 146.134 31.4693 145.991 31.7207ZM143.771 25.7658C144.022 25.2989 144.489 24.9039 144.884 24.9398C145.279 24.9757 145.38 25.3349 145.129 25.8018C145.031 26.0227 144.878 26.2145 144.684 26.3582C144.49 26.5018 144.262 26.5923 144.022 26.6206C143.663 26.5991 143.577 26.2471 143.771 25.7658Z" fill="white"/>
<path d="M138.843 38.2778C138.641 38.2814 138.444 38.2183 138.282 38.0982C138.104 37.9502 137.97 37.7559 137.895 37.5366C137.821 37.3173 137.808 37.0816 137.859 36.8555C138.031 36.1665 138.302 35.506 138.663 34.8945L138.893 34.4491C139.676 33.0556 140.481 31.6333 141.342 30.2254C141.594 29.7526 142.023 29.3988 142.535 29.2413C142.697 29.1776 142.872 29.1567 143.045 29.1806C143.217 29.2045 143.381 29.2724 143.519 29.3778C143.61 29.4615 143.676 29.5692 143.709 29.6886C143.742 29.808 143.741 29.9342 143.706 30.053C143.434 30.7503 143.077 31.4113 142.643 32.0212C142.477 32.2798 142.312 32.5384 142.161 32.797C141.874 33.2782 141.58 33.7523 141.285 34.2336C140.904 34.8514 140.516 35.4763 140.143 36.1228C140.715 35.7388 141.262 35.3189 141.781 34.8657C142.65 34.1474 143.569 33.2926 144.589 32.3085L144.654 32.2439C144.958 31.9311 145.279 31.6361 145.617 31.3603C145.731 31.2669 146.026 31.0299 146.292 31.2598C146.558 31.4896 146.478 31.6261 146.292 31.9063C146.141 32.1336 145.967 32.3453 145.775 32.5384C144.389 34.0629 142.883 35.473 141.271 36.7549L140.926 37.0279C140.503 37.3914 140.056 37.7274 139.59 38.0335C139.366 38.1786 139.109 38.2628 138.843 38.2778ZM142.93 29.9237C142.873 29.9139 142.815 29.9139 142.758 29.9237C142.424 30.0369 142.147 30.2733 141.982 30.5845C141.12 31.9781 140.322 33.4004 139.554 34.7652C139.489 34.9016 139.403 35.0525 139.324 35.2105C139.001 35.7619 138.759 36.3571 138.606 36.9776C138.582 37.0689 138.585 37.1649 138.613 37.2549C138.641 37.345 138.693 37.4255 138.764 37.4876C138.828 37.5307 138.958 37.4876 139.144 37.423C139.087 37.4122 139.033 37.3883 138.986 37.3533C138.94 37.3182 138.902 37.2729 138.875 37.2209C138.849 37.1688 138.835 37.1113 138.834 37.053C138.833 36.9946 138.846 36.9369 138.871 36.8842C139.417 35.8211 140.057 34.7939 140.667 33.8026C140.962 33.3357 141.249 32.8616 141.529 32.366C141.687 32.1002 141.86 31.8344 142.032 31.5686C142.404 31.0382 142.72 30.47 142.973 29.8734L142.93 29.9237ZM144.022 27.0001C143.896 26.9951 143.773 26.9591 143.663 26.8952C143.554 26.8313 143.463 26.7415 143.397 26.6338C143.314 26.4764 143.271 26.3014 143.271 26.1238C143.271 25.9461 143.314 25.7711 143.397 25.6138C143.529 25.3279 143.735 25.0827 143.994 24.9033C144.253 24.724 144.555 24.6171 144.869 24.5938C144.993 24.595 145.114 24.6281 145.221 24.6897C145.328 24.7514 145.417 24.8395 145.48 24.9457C145.561 25.1127 145.597 25.298 145.585 25.4833C145.572 25.6685 145.511 25.8473 145.408 26.0017C145.284 26.2742 145.091 26.5096 144.847 26.6847C144.604 26.8598 144.32 26.9685 144.022 27.0001ZM144.108 25.937C144.053 26.0354 144.031 26.1484 144.043 26.2603C144.201 26.2177 144.347 26.1409 144.471 26.0353C144.595 25.9298 144.694 25.7981 144.762 25.6497C144.829 25.545 144.861 25.4219 144.855 25.2977C144.694 25.3486 144.545 25.4314 144.416 25.5413C144.288 25.6511 144.183 25.7857 144.108 25.937Z" fill="white"/>
<path d="M154.161 32.2948C153.802 32.7258 153.443 33.1137 153.048 33.5088C152.013 34.6222 150.936 35.7284 149.83 36.734C149.363 37.1291 147.574 38.8459 147.395 37.3805C147.347 36.6238 147.535 35.871 147.933 35.2255C148.699 33.8239 149.536 32.4621 150.44 31.1455C151.403 29.5364 150.361 30.0752 149.327 30.6786C148.65 31.0957 148.015 31.5768 147.43 32.1152C146.357 33.0819 145.352 34.1211 144.421 35.2255C144.026 35.7284 143.494 36.3389 143.027 36.9495C142.919 37.0932 142.309 37.9839 142.093 37.8402C141.878 37.6966 142.093 37.3805 142.165 37.2728C142.562 36.29 143.043 35.3431 143.602 34.4426C144.32 33.0059 145.175 31.6124 146.037 30.2189C146.281 29.7879 147.035 29.8597 147.359 30.2189C147.538 30.4343 147.359 30.6858 147.215 30.8653C146.568 31.8279 145.929 32.8695 145.283 33.832C145.57 33.5088 145.893 33.1927 146.173 32.9054C147.232 31.7325 148.466 30.7294 149.83 29.9315C150.261 29.716 151.187 29.2132 151.726 29.5005C152.265 29.7879 152.193 30.578 152.013 31.0737C151.392 32.4699 150.598 33.7827 149.65 34.9813C149.219 35.5919 148.824 36.1953 148.393 36.8059C148.321 36.9136 147.933 37.5242 148.041 37.5242C148.393 37.6319 150.009 36.0516 150.332 35.7643C151.403 34.7658 152.487 33.6093 153.515 32.5462C153.73 32.2948 153.982 32.0793 154.233 31.8279C154.484 31.5765 154.628 31.3969 154.736 31.4687C154.843 31.5406 154.197 32.2301 154.161 32.2948Z" fill="white"/>
<path d="M147.888 38.3372C147.785 38.3369 147.683 38.3174 147.587 38.2797C147.421 38.2075 147.279 38.0879 147.181 37.9358C147.083 37.7838 147.031 37.606 147.034 37.4249C146.981 36.6085 147.182 35.7958 147.608 35.0975C148.149 34.0654 148.748 33.0652 149.404 32.1021C149.648 31.7286 149.892 31.3838 150.122 30.9887L150.338 30.6008C150.057 30.7317 149.784 30.8779 149.519 31.039C148.862 31.4451 148.244 31.9117 147.673 32.4326C146.612 33.388 145.621 34.4178 144.706 35.5142L144.132 36.2325C143.866 36.5557 143.578 36.9005 143.32 37.2453C142.81 37.9636 142.35 38.5239 141.883 38.2222C141.495 38.0283 141.704 37.5039 141.79 37.2597C142.159 36.3041 142.609 35.3813 143.133 34.5013L143.226 34.3289C143.894 33.0647 144.663 31.7142 145.676 30.0908C145.752 29.9632 145.856 29.8547 145.981 29.7737C146.105 29.6928 146.247 29.6415 146.394 29.6239C146.601 29.598 146.811 29.6174 147.009 29.6806C147.208 29.7439 147.39 29.8495 147.544 29.9903C147.655 30.1407 147.711 30.3246 147.703 30.5115C147.695 30.6984 147.624 30.8769 147.5 31.0175C147.48 31.0451 147.46 31.0739 147.443 31.1037L147.4 31.1683C148.05 30.5665 148.774 30.0499 149.555 29.6311L149.684 29.5593C150.23 29.2791 151.157 28.841 151.839 29.2145C152.137 29.4459 152.345 29.7745 152.427 30.1432C152.508 30.5119 152.458 30.8975 152.284 31.233C151.748 32.4877 151.053 33.6682 150.216 34.7455L149.878 35.2268C149.677 35.507 149.483 35.7871 149.289 36.0744L149.131 36.3115L149.763 35.7368L150 35.5142C150.654 34.9108 151.322 34.2212 151.961 33.546C152.371 33.1293 152.773 32.7055 153.175 32.3104C153.321 32.1412 153.477 31.9805 153.642 31.8292L153.85 31.628C154.138 31.3407 154.483 30.9959 154.827 31.2258C154.908 31.283 154.967 31.3669 154.993 31.4628C155.072 31.8148 154.511 32.4469 154.396 32.569C154.159 32.8564 153.901 33.1293 153.678 33.3951L153.312 33.7902C152.371 34.7958 151.25 35.9451 150.065 37.0442L149.914 37.1735C149.253 37.7338 148.506 38.3372 147.888 38.3372ZM150.963 29.8251L151.049 29.9041C151.358 30.2129 151.157 30.7158 150.762 31.3407C150.517 31.7286 150.273 32.1021 150.043 32.4757C149.401 33.4153 148.813 34.3915 148.283 35.3992C147.984 35.9044 147.807 36.4727 147.766 37.0585C147.838 36.9292 147.931 36.7712 148.068 36.5701C148.305 36.2325 148.52 35.9092 148.736 35.586C148.951 35.2627 149.124 35.0185 149.325 34.7312L149.67 34.2499C150.471 33.2276 151.135 32.1046 151.645 30.9097C151.76 30.5937 151.861 29.9903 151.516 29.7891C151.425 29.7572 151.328 29.7439 151.232 29.7501C151.136 29.7563 151.042 29.7818 150.956 29.8251H150.963ZM146.653 30.3279H146.574C146.533 30.3282 146.493 30.3381 146.457 30.3568C146.421 30.3755 146.389 30.4025 146.366 30.4356C145.367 32.059 144.591 33.3879 143.938 34.645L143.837 34.8317C143.514 35.392 143.191 35.9739 142.918 36.5701C143.155 36.2612 143.384 35.9882 143.636 35.7225C143.887 35.4567 144.038 35.2412 144.203 35.0041C144.369 34.7671 144.764 34.372 145.044 34.056C144.995 33.9893 144.968 33.9088 144.968 33.8261C144.968 33.7434 144.995 33.6629 145.044 33.5962L145.985 32.1596C146.315 31.6424 146.646 31.1324 146.976 30.6368L147.026 30.5577C147.056 30.5116 147.082 30.4636 147.105 30.4141C146.956 30.3265 146.78 30.2959 146.61 30.3279H146.653Z" fill="white"/>
</svg>
