<svg width="19" height="22" viewBox="0 0 19 22" fill="none" xmlns="http://www.w3.org/2000/svg">
<circle cx="9.50365" cy="4.43333" r="3.43333" stroke="#F5F5F5" stroke-width="2"/>
<path d="M18 16.4729C18 17.2233 17.7945 17.8043 17.4481 18.2749C17.0932 18.7571 16.5499 19.1773 15.7992 19.5229C14.2757 20.2245 12.0725 20.5396 9.5 20.5396C6.92745 20.5396 4.7243 20.2245 3.20076 19.5229C2.45014 19.1773 1.90678 18.7571 1.55192 18.2749C1.20552 17.8043 1 17.2233 1 16.4729C1 15.7225 1.20552 15.1415 1.55192 14.6709C1.90678 14.1888 2.45014 13.7686 3.20076 13.4229C4.7243 12.7213 6.92745 12.4062 9.5 12.4062C12.0725 12.4062 14.2757 12.7213 15.7992 13.4229C16.5499 13.7686 17.0932 14.1888 17.4481 14.6709C17.7945 15.1415 18 15.7225 18 16.4729Z" stroke="#F5F5F5" stroke-width="2"/>
</svg>
