<svg width="22" height="23" viewBox="0 0 22 23" fill="none" xmlns="http://www.w3.org/2000/svg">
<path d="M1.75781 6.04688H3.81115H20.2378" stroke="#F93665" stroke-width="2" stroke-linecap="round" stroke-linejoin="round"/>
<path d="M17.7213 6.66222V19.9778C17.7213 20.5141 17.519 21.0285 17.1589 21.4077C16.7988 21.7869 16.3105 22 15.8013 22H6.20125C5.69203 22 5.20367 21.7869 4.8436 21.4077C4.48354 21.0285 4.28125 20.5141 4.28125 19.9778V6.66222M7.16125 5.04444V3.02222C7.16125 2.4859 7.36354 1.97154 7.72361 1.5923C8.08368 1.21305 8.57203 1 9.08125 1H12.9213C13.4305 1 13.9188 1.21305 14.2789 1.5923C14.639 1.97154 14.8413 2.4859 14.8413 3.02222V5.04444" stroke="#F93665" stroke-width="2" stroke-linecap="round" stroke-linejoin="round"/>
</svg>
